<?xml version='1.0' encoding='utf-8'?>
<!DOCTYPE svg PUBLIC '-//W3C//DTD SVG 1.1//EN' 'http://www.w3.org/Graphics/SVG/1.1/DTD/svg11.dtd'>
<svg version="1.1" xmlns="http://www.w3.org/2000/svg" viewBox="0 0 512 512" xmlns:xlink="http://www.w3.org/1999/xlink" enable-background="new 0 0 512 512">
  <g>
    <g>
      <g>
        <path d="m454.3,448.4c-5.2,5.7-16.6,11.7-32.5,11.7h-331.6c-16,0-27.3-6.1-32.5-11.7-3.1-3.4-4.5-6.9-4.1-10.3l25.7-205.8 155.4,69v15.3c0,11.3 9.5,20.4 21.3,20.4 11.8,0 21.3-9.1 21.3-20.4v-15.3l155.4-69 25.7,205.8c0.4,3.5-1,7-4.1,10.3zm-326.6-329.9h256.6c20.4,0 35.4,10.1 36.6,19.6l6.4,51.6-150.1,66.6c-0.8-10.5-10-18.9-21.2-18.9-11.2,0-20.4,8.3-21.2,18.9l-150.2-66.6 6.4-51.6c1.3-9.5 16.3-19.6 36.7-19.6zm61.2-55.8c0-6 5.1-10.9 11.3-10.9h111.5c6.3,0 11.3,4.9 11.3,10.9v14.9h-134.1v-14.9zm311.7,370.6l-37.4-300.1c-4-31.7-37.9-55.6-78.9-55.6h-18.6v-14.9c0-28.5-24.2-51.7-53.9-51.7h-111.5c-29.7,0-53.9,23.2-53.9,51.7v14.9h-18.6c-41,0-74.9,23.9-78.9,55.6l-37.5,300.1c-1.9,15.1 3.3,30.1 14.5,42.3 14.7,15.9 38.8,25.4 64.3,25.4h331.5c25.6,0 49.6-9.5 64.4-25.5 11.3-12.1 16.4-27.1 14.5-42.2z"/>
      </g>
    </g>
  </g>
</svg>
