<?xml version="1.0" encoding="iso-8859-1"?>
<!-- Generator: Adobe Illustrator 19.0.0, SVG Export Plug-In . SVG Version: 6.00 Build 0)  -->
<svg version="1.1" id="Layer_1" xmlns="http://www.w3.org/2000/svg" xmlns:xlink="http://www.w3.org/1999/xlink" x="0px" y="0px"
	 viewBox="0 0 458.319 458.319" style="enable-background:new 0 0 458.319 458.319;" xml:space="preserve">
<g>
	<g>
		<g>
			<path d="M443.345,21.593c-1.155,0-2.332,0.135-3.515,0.418L229.16,72.403L18.489,22.012c-1.183-0.283-2.362-0.418-3.516-0.418
				C6.932,21.591,0,28.127,0,36.599v333.9c0,6.94,4.761,12.974,11.511,14.588c2.299,0.55,213.007,50.958,214.386,51.267
				c1.078,0.24,2.178,0.371,3.304,0.371c1.122,0,2.27-0.13,3.448-0.411l214.159-51.227c6.75-1.614,11.511-7.648,11.511-14.588
				v-333.9C458.319,28.124,451.383,21.593,443.345,21.593z M428.32,358.663L428.32,358.663l-199.14,47.634
				c-0.006-0.002-0.014-0.003-0.02-0.005V103.249h0.001l6.979-1.669l192.18-45.969V358.663z"/>
			<path d="M263.65,234.35l78.137-19.151c5.065-1.241,8.627-5.782,8.627-10.997v-70.361c0-7.345-6.884-12.745-14.017-10.997
				l-78.137,19.151c-5.065,1.242-8.627,5.782-8.627,10.997v70.361C249.633,230.698,256.517,236.098,263.65,234.35z"/>
			<path d="M250.086,282.254c1.708,6.812,7.821,11.355,14.538,11.355c1.208,0,2.436-0.147,3.66-0.454l127.155-31.548
				c8.036-2.015,12.916-10.162,10.901-18.198s-10.166-12.917-18.198-10.901l-127.155,31.548
				C252.951,266.071,248.071,274.218,250.086,282.254z"/>
			<path d="M388.142,287.18l-127.155,31.548c-8.036,2.015-12.916,10.162-10.901,18.198c1.708,6.812,7.821,11.355,14.538,11.355
				c1.208,0,2.436-0.147,3.66-0.454l127.155-31.548c8.036-2.015,12.916-10.162,10.901-18.198S396.174,285.164,388.142,287.18z"/>
		</g>
	</g>
</g>
<g>
</g>
<g>
</g>
<g>
</g>
<g>
</g>
<g>
</g>
<g>
</g>
<g>
</g>
<g>
</g>
<g>
</g>
<g>
</g>
<g>
</g>
<g>
</g>
<g>
</g>
<g>
</g>
<g>
</g>
</svg>
