<?xml version="1.0" ?><!DOCTYPE svg  PUBLIC '-//W3C//DTD SVG 1.1//EN'  'http://www.w3.org/Graphics/SVG/1.1/DTD/svg11.dtd'><svg width="846.66px" height="846.66px" viewBox="0 0 846.66 846.66" style="shape-rendering:geometricPrecision; text-rendering:geometricPrecision; image-rendering:optimizeQuality; fill-rule:evenodd; clip-rule:evenodd" version="1.1" xml:space="preserve" xmlns="http://www.w3.org/2000/svg" xmlns:xlink="http://www.w3.org/1999/xlink"><defs><style type="text/css">
   <![CDATA[
    .fil0 {fill:black;fill-rule:nonzero}
   ]]>
  </style></defs><g id="Layer_x0020_1"><path class="fil0" d="M28.58 13.89l564.8 0c11.46,0 20.76,9.3 20.76,20.76l0 340.59 203.94 0c11.46,0 20.76,9.3 20.76,20.76l0 378.22c0,32.24 -26.31,58.54 -58.55,58.54l-101.89 0 -552.65 0c-64.9,0 -117.92,-53.02 -117.92,-117.92l0 -680.19c0,-11.46 9.29,-20.76 20.75,-20.76zm146.14 603.28c-27.3,0 -27.3,-41.52 0,-41.52l233.81 0c27.31,0 27.31,41.52 0,41.52l-233.81 0zm0 97.17c-27.3,0 -27.3,-41.52 0,-41.52l233.81 0c27.31,0 27.31,41.52 0,41.52l-233.81 0zm0 -291.51c-27.3,0 -27.3,-41.52 0,-41.52l233.81 0c27.31,0 27.31,41.52 0,41.52l-233.81 0zm0 97.17c-27.3,0 -27.3,-41.52 0,-41.52l233.81 0c27.31,0 27.31,41.52 0,41.52l-233.81 0zm-39.47 -387.68l151.82 0c11.47,0 20.76,9.29 20.76,20.76l0 151.82c0,11.47 -9.29,20.76 -20.76,20.76l-151.82 0c-11.46,0 -20.76,-9.29 -20.76,-20.76l0 -151.82c0,-11.47 9.3,-20.76 20.76,-20.76zm131.07 41.52l-110.31 0 0 110.3 110.31 0 0 -110.3zm347.82 242.92l0 298.08c0,38.31 28.84,71.09 66.85,75.88 25.94,3.27 71.29,0.53 99.3,0.53 9.32,0 17.03,-7.72 17.03,-17.03l0 -357.46 -183.18 0zm-41.52 -361.35l-523.28 0 0 659.43c0,41.98 34.43,76.41 76.41,76.41l475.15 0c-17.61,-20.61 -28.28,-47.33 -28.28,-76.41l0 -659.43z"/></g></svg>