<?xml version="1.0" encoding="iso-8859-1"?>
<!-- Generator: Adobe Illustrator 19.0.0, SVG Export Plug-In . SVG Version: 6.00 Build 0)  -->
<svg version="1.1" id="Capa_1" xmlns="http://www.w3.org/2000/svg" xmlns:xlink="http://www.w3.org/1999/xlink" x="0px" y="0px"
	 viewBox="0 0 490 490" style="enable-background:new 0 0 490 490;" xml:space="preserve">
<g>
	<polygon points="132.021,251.254 197.033,186.572 259.982,249.208 381.806,127.978 357.979,104.019 259.982,201.521 
		197.033,138.885 108.194,227.295 	"/>
	<path d="M0,43.627h36.681v286.218H0v33.793h182.467l-48.103,102.138l30.559,14.389l31.084-66.002h97.986l31.084,66.002
		l30.559-14.389l-48.103-102.138H490v-33.793h-36.664V43.627H490V9.834H0V43.627z M278.077,380.37h-66.155l7.88-16.732h50.395
		L278.077,380.37z M419.543,329.846H70.474V43.627h349.069V329.846z"/>
</g>
<g>
</g>
<g>
</g>
<g>
</g>
<g>
</g>
<g>
</g>
<g>
</g>
<g>
</g>
<g>
</g>
<g>
</g>
<g>
</g>
<g>
</g>
<g>
</g>
<g>
</g>
<g>
</g>
<g>
</g>
</svg>
