<?xml version="1.0" encoding="iso-8859-1"?>
<!-- Generator: Adobe Illustrator 19.0.0, SVG Export Plug-In . SVG Version: 6.00 Build 0)  -->
<svg version="1.1" id="Layer_1" xmlns="http://www.w3.org/2000/svg" xmlns:xlink="http://www.w3.org/1999/xlink" x="0px" y="0px"
	 viewBox="0 0 512 512" style="enable-background:new 0 0 512 512;" xml:space="preserve">
<g>
	<g>
		<path d="M477.395,169.315L512,151.837l-255.999-129.3L0,151.837l84.42,42.638v200.896c0,27.316,19.38,52.05,54.57,69.644
			c31.532,15.766,73.087,24.449,117.01,24.449c43.924,0,85.478-8.683,117.01-24.449c35.191-17.595,54.57-42.328,54.57-69.644
			V194.474l16.605-8.386v67.386c-3.434,3.901-5.535,9.002-5.535,14.595c0,12.208,9.932,22.139,22.139,22.139
			s22.139-9.932,22.139-22.139c0-5.594-2.101-10.693-5.535-14.595V169.315z M358.16,435.311
			c-27.01,13.505-63.291,20.943-102.159,20.943c-38.868,0-75.149-7.438-102.159-20.943c-23.014-11.507-36.212-26.065-36.212-39.941
			V211.248l138.372,69.889l138.371-69.889v184.123h0C394.372,409.246,381.174,423.804,358.16,435.311z M256.001,243.931
			L73.661,151.837l182.339-92.095l182.338,92.095L256.001,243.931z"/>
	</g>
</g>
<g>
</g>
<g>
</g>
<g>
</g>
<g>
</g>
<g>
</g>
<g>
</g>
<g>
</g>
<g>
</g>
<g>
</g>
<g>
</g>
<g>
</g>
<g>
</g>
<g>
</g>
<g>
</g>
<g>
</g>
</svg>
