<?xml version="1.0" ?><svg width="32px" height="32px" viewBox="0 0 32 32" enable-background="new 0 0 32 32" id="Layer_3" version="1.1" xml:space="preserve" xmlns="http://www.w3.org/2000/svg" xmlns:xlink="http://www.w3.org/1999/xlink"><g><path d="M11.475,19.111l-1.45,1.45l-0.707-0.707c-0.391-0.391-1.023-0.391-1.414,0l-4.243,4.242   c-0.566,0.566-0.879,1.32-0.879,2.122c0,0.801,0.313,1.555,0.879,2.121s1.32,0.879,2.121,0.879c0.802,0,1.556-0.313,2.121-0.879   l4.243-4.243c0.391-0.391,0.391-1.023,0-1.414l-0.707-0.707l1.45-1.45c1.834,1.501,4.08,2.253,6.327,2.253   c2.562,0,5.122-0.975,7.071-2.924c1.89-1.889,2.93-4.399,2.93-7.07c0-2.672-1.04-5.183-2.93-7.071   c-1.889-1.89-4.399-2.93-7.071-2.93c-2.671,0-5.182,1.04-7.07,2.93C8.486,9.372,8.263,15.187,11.475,19.111z M6.488,26.925   c-0.377,0.379-1.034,0.377-1.413,0c-0.188-0.189-0.293-0.44-0.293-0.707c0-0.268,0.104-0.518,0.293-0.707l3.536-3.536l1.414,1.414   L6.488,26.925z M19.217,4.782c2.138,0,4.146,0.832,5.657,2.344c1.512,1.511,2.344,3.52,2.344,5.657   c0,2.137-0.832,4.146-2.344,5.656c-3.117,3.118-8.192,3.12-11.313,0c-3.119-3.119-3.119-8.194,0-11.313   C15.071,5.614,17.08,4.782,19.217,4.782z"/><path d="M15,16.782h3c0.553,0,1-0.447,1-1v-4c0-0.553-0.447-1-1-1h-3c-0.553,0-1,0.447-1,1v4C14,16.335,14.447,16.782,15,16.782z    M16,12.782h1v2h-1V12.782z"/><path d="M21,17h3c0.553,0,1-0.447,1-1V9c0-0.553-0.447-1-1-1h-3c-0.553,0-1,0.447-1,1v7C20,16.553,20.447,17,21,17z M22,10h1v5h-1   V10z"/></g></svg>