<?xml version="1.0" ?><svg width="32px" height="32px" viewBox="0 0 32 32" enable-background="new 0 0 32 32" id="Layer_3" version="1.1" xml:space="preserve" xmlns="http://www.w3.org/2000/svg" xmlns:xlink="http://www.w3.org/1999/xlink"><g><path d="M2.7,26.089c0.196,0.263,0.497,0.4,0.801,0.4c0.208,0,0.419-0.065,0.599-0.2l3.419-2.564   c0.53,0.47,1.219,0.764,1.981,0.764c1.654,0,3-1.346,3-3c0-0.486-0.127-0.938-0.333-1.344c0.753,0.226,1.532,0.34,2.312,0.34   c1.734,0,3.464-0.564,4.901-1.681l1.464,1.463c-0.346,0.346-0.391,0.891-0.107,1.288l3.536,4.95   c0.032,0.045,0.068,0.087,0.106,0.126c0.567,0.566,1.32,0.879,2.122,0.879s1.555-0.313,2.121-0.879h0   c0.566-0.566,0.878-1.32,0.878-2.121c0-0.802-0.313-1.556-0.879-2.122c-0.039-0.038-0.081-0.074-0.125-0.105l-4.95-3.536   c-0.398-0.284-0.944-0.238-1.289,0.106l0,0l-1.463-1.463c0.884-1.135,1.439-2.473,1.616-3.901h1.274c0.414,1.161,1.514,2,2.816,2   c1.654,0,3-1.346,3-3s-1.346-3-3-3c-1.302,0-2.402,0.839-2.816,2H22.41c-0.218-1.757-1.002-3.384-2.274-4.656   c-3.119-3.119-8.194-3.119-11.313,0c-3.119,3.119-3.119,8.194,0,11.313c0.132,0.132,0.271,0.249,0.409,0.37   C7.705,18.655,6.5,19.927,6.5,21.489c0,0.159,0.023,0.312,0.047,0.465L2.9,24.689C2.458,25.021,2.369,25.647,2.7,26.089z    M27.254,23.854c0.159,0.182,0.246,0.412,0.246,0.656c0,0.267-0.104,0.518-0.293,0.707c0,0,0,0,0,0   c-0.36,0.362-0.982,0.381-1.363,0.047l-2.987-4.182l0.216-0.216L27.254,23.854z M18.722,16.732   c-1.623,1.624-3.946,2.094-6.002,1.464l1.503-2.003c0.389,0.185,0.819,0.297,1.278,0.297c1.654,0,3-1.346,3-3h1.89   C20.186,14.712,19.615,15.839,18.722,16.732z M14.5,13.489c0-0.552,0.449-1,1-1s1,0.448,1,1s-0.449,1-1,1S14.5,14.041,14.5,13.489z    M26.5,11.489c0.551,0,1,0.448,1,1s-0.449,1-1,1s-1-0.448-1-1S25.949,11.489,26.5,11.489z M10.236,8.247   c1.17-1.17,2.706-1.754,4.243-1.754s3.073,0.585,4.243,1.754c0.894,0.893,1.465,2.02,1.669,3.242H17.72   c-0.549-0.609-1.337-1-2.22-1c-1.654,0-3,1.346-3,3c0,0.469,0.117,0.907,0.31,1.302c-0.035,0.035-0.079,0.057-0.11,0.098   l-1.793,2.391c-0.23-0.171-0.462-0.339-0.671-0.548C7.897,14.393,7.897,10.587,10.236,8.247z M9.5,20.489c0.551,0,1,0.448,1,1   s-0.449,1-1,1s-1-0.448-1-1S8.949,20.489,9.5,20.489z"/></g></svg>