<?xml version="1.0" encoding="iso-8859-1"?>
<!-- Generator: Adobe Illustrator 19.0.0, SVG Export Plug-In . SVG Version: 6.00 Build 0)  -->
<svg version="1.1" id="Layer_1" xmlns="http://www.w3.org/2000/svg" xmlns:xlink="http://www.w3.org/1999/xlink" x="0px" y="0px"
	 viewBox="0 0 512 512" style="enable-background:new 0 0 512 512;" xml:space="preserve">
<g>
	<g>
		<path d="M307.395,139.673h-36.186V119.96L384.382,78.14l-143.59-53.062v84.288v21.833v8.472h-36.186H0v81.112v30.417v235.721
			h115.74h30.417h52.95h15.209h83.367h15.209h52.95h30.417H512v-235.72v-30.417v-81.112H307.395z M271.209,68.746l25.42,9.394
			l-25.42,9.394V68.746z M115.74,363.859v92.647H30.417V251.202h85.323V363.859z M126.448,220.785H30.417V170.09h174.188
			L126.448,220.785z M168.691,456.506h-22.533v-92.647c0-6.212,5.054-11.266,11.267-11.266c6.212,0,11.266,5.054,11.266,11.266
			V456.506z M267.267,456.506h-22.533v0v-92.648c0-6.212,5.054-11.266,11.267-11.266c6.212,0,11.267,5.053,11.267,11.266V456.506z
			 M365.842,456.506h-22.533v-92.647c0-6.212,5.054-11.266,11.267-11.266s11.266,5.054,11.266,11.266V456.506z M365.842,323.735
			c-3.586-1.009-7.362-1.56-11.266-1.56c-22.984,0-41.684,18.699-41.684,41.684v92.647h-15.209v-92.647
			c0-22.984-18.699-41.683-41.684-41.683c-22.984,0-41.684,18.698-41.684,41.683v92.648h-15.209v-92.647
			c0-22.984-18.699-41.684-41.684-41.684c-3.905,0-7.68,0.552-11.267,1.559v-79.479L256,173.009l109.842,71.247V323.735z
			 M385.551,220.785l-78.157-50.695h174.188v50.695H385.551z M481.583,456.506L481.583,456.506H396.26v-92.647V251.202h85.323
			V456.506z"/>
	</g>
</g>
<g>
	<g>
		<path d="M256,214.532c-24.207,0-43.9,19.694-43.9,43.901s19.693,43.9,43.9,43.9c24.207,0,43.9-19.693,43.9-43.9
			S280.207,214.532,256,214.532z M256,271.916c-7.435,0-13.483-6.049-13.483-13.483c0-7.435,6.049-13.484,13.483-13.484
			c7.434,0,13.483,6.049,13.483,13.484C269.483,265.867,263.434,271.916,256,271.916z"/>
	</g>
</g>
<g>
	<g>
		<rect x="57.874" y="338.899" width="30.417" height="29.91"/>
	</g>
</g>
<g>
	<g>
		<rect x="57.874" y="288.711" width="30.417" height="29.91"/>
	</g>
</g>
<g>
	<g>
		<rect x="57.874" y="389.087" width="30.417" height="29.91"/>
	</g>
</g>
<g>
	<g>
		<rect x="423.711" y="338.899" width="30.417" height="29.91"/>
	</g>
</g>
<g>
	<g>
		<rect x="423.711" y="288.711" width="30.417" height="29.91"/>
	</g>
</g>
<g>
	<g>
		<rect x="423.711" y="389.087" width="30.417" height="29.91"/>
	</g>
</g>
<g>
</g>
<g>
</g>
<g>
</g>
<g>
</g>
<g>
</g>
<g>
</g>
<g>
</g>
<g>
</g>
<g>
</g>
<g>
</g>
<g>
</g>
<g>
</g>
<g>
</g>
<g>
</g>
<g>
</g>
</svg>
